<svg xmlns="http://www.w3.org/2000/svg" xml:space="preserve" width="2048" height="2048" style="shape-rendering:geometricPrecision;text-rendering:geometricPrecision;image-rendering:optimizeQuality;fill-rule:evenodd;clip-rule:evenodd"><path style="fill:#009688" d="M0 0h2048v2048H0z"/><path style="fill:none" d="M255.999 255.999h1536v1536h-1536z"/><path d="m1474.85 365.305-114.88 94.614-.01-.012c-2.052 1.722-4.11 3.79-6.138 6.185-2.011 2.375-3.678 4.684-4.946 6.885l-156.05 270.466-7.82 13.555-15.304 2.195L411.99 867.87l.002.017c-2.228.328-4.206 1.066-5.781 2.132a12.459 12.459 0 0 0-3.841 4.173l-.125.125-29.913 51.812a13.628 13.628 0 0 0-1.676 4.671c-.421 2.643.049 5.403 1.238 7.904 1.148 2.415 2.92 4.443 5.14 5.725 1.32.762 2.883 1.318 4.657 1.602l589.4 94.907 45.794 7.374-23.169 40.127-110.6 191.556-19.375 14.874-263.866 70.704a13.336 13.336 0 0 0-4.656 2.28c-1.388 1.06-2.556 2.326-3.434 3.731l.073.043-16.103 28.072h-.125c-.876 1.52-1.422 3.185-1.668 4.907-.368 2.584.114 5.246 1.276 7.636 1.176 2.418 2.98 4.453 5.231 5.753l-.03.053c1.282.721 2.875 1.25 4.765 1.52l248.172 35.74 20.626 11.875 155.046 197.059c1.116 1.423 2.408 2.527 3.79 3.32 2.316 1.328 4.989 1.885 7.63 1.696 2.592-.185 5.102-1.096 7.149-2.704 1.237-.97 2.343-2.239 3.24-3.803l.125-.125 16.234-28.116.053.03a13.34 13.34 0 0 0 1.603-4.848c.21-1.613.065-3.41-.438-5.286l-70.702-263.866 3.25-24.126 110.597-191.562 23.17-40.132 29.205 35.883 376.923 463.113c1.161 1.429 2.393 2.495 3.636 3.212h.125c2.24 1.294 4.927 1.815 7.656 1.597 2.704-.216 5.267-1.16 7.284-2.799 1.178-.957 2.263-2.235 3.185-3.831l.054.031 29.857-51.718c.977-1.693 1.543-3.659 1.692-5.736.151-2.116-.122-4.16-.82-5.97l-.042.017-284.91-710.62-5.776-14.405 7.777-13.47 156.178-270.508.055.03a48.558 48.558 0 0 0 3.612-7.802c.904-2.525 1.608-5.28 2.1-8.249v-.125l24.5-146.797v-.125c.1-.579.15-.827.15-.833-.026-.1-.088.035-.299-.151-.328-.293-.67-.482-.97-.534-.181-.032-.25-.072-.291-.096h-.013c-.032.009-.02.024-.166.1a3.66 3.66 0 0 0-.603.37zm-155.38 45.364 114.88-94.614c3.878-3.19 7.847-5.802 11.851-7.87 4.26-2.2 8.72-3.878 13.302-5.07l-.008-.03.062-.017h.25c9.182-2.353 18.31-2.628 26.867-1.138 12.217 2.13 23.619 7.679 32.72 15.785 9.22 8.21 16.232 19.215 19.547 32.15 2.224 8.677 2.744 17.899 1.1 27.334l-.02-.004-24.478 146.675-.02-.003c-1.088 6.512-2.79 12.983-5.082 19.378a111.602 111.602 0 0 1-8.416 18.146v.126l-148.402 257.039 279.134 696.214v.125c4.392 11.062 6.177 22.709 5.362 34.077-.814 11.354-4.215 22.632-10.193 32.987l-29.911 51.812v.125a76.996 76.996 0 0 1-18.186 21.33 77.234 77.234 0 0 1-42.532 17.05 77.056 77.056 0 0 1-44.658-10.098l.032-.054a77.157 77.157 0 0 1-21.292-18.158l-347.718-427.23-80.792 139.937 67.317 251.232c2.614 9.756 3.25 19.952 1.938 30.038-1.284 9.875-4.515 19.536-9.656 28.442v.125l-16.15 27.968.04.023c-5.127 8.943-11.708 16.395-19.238 22.304-12.32 9.672-27.094 15.122-42.15 16.203-15.004 1.076-30.354-2.192-43.88-9.947-8.32-4.77-15.92-11.201-22.292-19.32l-147.144-187.015-235.448-33.908c-10.004-1.428-19.288-4.77-27.61-9.574h-.126a77.035 77.035 0 0 1-30.73-33.004c-6.589-13.535-9.25-29.062-7.026-44.635 1.329-9.29 4.47-18.634 9.638-27.602l-.095-.055 16.104-28.072.25-.25c5.196-8.844 11.96-16.48 19.86-22.524 7.962-6.092 17.074-10.647 26.906-13.28l251.105-67.284 80.818-139.974-543.606-87.534a76.957 76.957 0 0 1-26.408-9.352 77.241 77.241 0 0 1-31.141-33.724 76.908 76.908 0 0 1-6.487-45.154c1.435-8.981 4.517-17.917 9.426-26.422l29.828-51.664-.04-.023c5.842-10.287 13.98-18.913 23.591-25.423 9.702-6.57 20.742-10.936 32.28-12.632h.126l742.531-106.5 148.227-256.91c3.491-6.056 7.334-11.53 11.445-16.386 4.17-4.923 8.96-9.626 14.274-14.047l.125-.125z" style="fill:#fffffe;fill-rule:nonzero"/></svg>